# xmcd CD database file generated by Grip 2.95
# 
# Track frame offsets:
#       150
#       20042
#       41740
#       73852
#       96180
#       125154
#       152775
#       173232
#       197732
#       220375
#       233230
#       270015
# 
# Disc length: 3957 seconds
# 
# Revision: 3
# Processed by: cddbd v1.4b41PL1 Copyright (c) Steve Scherf et al.
# Submitted via: Grip 2.95
# 
DISCID=af0f730c
DTITLE=Compilation - LIve at Rhino's
DYEAR=1900
DGENRE=
TTITLE0=Tutti Frutti - Hans Staymer
TTITLE1=Easy Rider - Hans Staymer
TTITLE2=Every Day I Have the Blues - Lovi Eli
TTITLE3=Down The Road - Willie McCaulder
TTITLE4=Tanqueray - Willie McCaulder
TTITLE5=Do The Shag - Kenny "Blues Boss" Wayne
TTITLE6=Let Me Explain - Al Foreman
TTITLE7=Opp Poo Pah Doo - Al Foreman
TTITLE8=Gee I wish - Paul Kype
TTITLE9=Nadine - Doc Fingers
TTITLE10=Rock Me - Jim Byrnes
TTITLE11=No Special Rider - Jim Byrnes
EXTD=
EXTT0=
EXTT1=
EXTT2=
EXTT3=
EXTT4=
EXTT5=
EXTT6=
EXTT7=
EXTT8=
EXTT9=
EXTT10=
EXTT11=
PLAYORDER=
